<?xml version="1.0" encoding="utf-8"?>
<!-- Generator: Adobe Illustrator 26.0.1, SVG Export Plug-In . SVG Version: 6.00 Build 0)  -->
<svg version="1.1" id="Layer_1" xmlns="http://www.w3.org/2000/svg" xmlns:xlink="http://www.w3.org/1999/xlink" x="0px" y="0px"
	 viewBox="0 0 595.3 841.9" style="enable-background:new 0 0 595.3 841.9;" xml:space="preserve">
<style type="text/css">
	.st0{fill:#FFFFFF;stroke:#FFFFFF;stroke-miterlimit:10;}
	.st1{fill:#FFFFFF;}
</style>
<path class="st0" d="M96.9,106.9c0,0,257.9-63.1,238.5,133.9c32.5,11.1,137.1,106.9-5.4,238.6c4.2,8.4-41.9-80.2-41.9-80.2
	s92.2-72.6-23.5-117.9c14.3,5.1,65.4-131.4-98.1-89.7L96.9,106.9z"/>
<path class="st1" d="M366.8,584.7c0,0-58.7-43.4,0-64.4C366.8,520.3,429.7,573.6,366.8,584.7z"/>
<polyline class="st1" points="159.6,216.6 159.6,407.9 257.5,407.9 302.9,491.3 80.9,491.3 80.9,133.1 "/>
</svg>
