<?xml version="1.0" encoding="utf-8"?>
<!-- Generator: Adobe Illustrator 26.0.1, SVG Export Plug-In . SVG Version: 6.00 Build 0)  -->
<svg version="1.1" id="Layer_1" xmlns="http://www.w3.org/2000/svg" xmlns:xlink="http://www.w3.org/1999/xlink" x="0px" y="0px"
	 viewBox="0 0 595.28 841.89" style="enable-background:new 0 0 595.28 841.89;" xml:space="preserve">
<style type="text/css">
	.st0{fill:#303A3D;}
	.st1{fill:#FFFFFF;stroke:#FFFFFF;stroke-miterlimit:10;}
	.st2{fill:#FFFFFF;}
</style>
<rect x="79.2" y="120.56" class="st0" width="297.5" height="287.84"/>
<path class="st1" d="M195.89,221.13c0,0,61.52-15.06,56.88,31.94c7.75,2.65,32.69,25.5-1.28,56.91c1,2-9.99-19.12-9.99-19.12
	s22-17.32-5.6-28.11c3.41,1.21,15.61-31.35-23.39-21.4L195.89,221.13z"/>
<path class="st2" d="M260,337.24c0,0-14-10.35,0-15.35C260,321.89,275,334.59,260,337.24z"/>
<polyline class="st2" points="207.73,245.67 207.73,293.72 232.33,293.72 243.73,314.67 187.96,314.67 187.96,224.67 "/>
</svg>
