<?xml version="1.0" encoding="utf-8"?>
<!-- Generator: Adobe Illustrator 26.0.1, SVG Export Plug-In . SVG Version: 6.00 Build 0)  -->
<svg version="1.1" xmlns="http://www.w3.org/2000/svg" xmlns:xlink="http://www.w3.org/1999/xlink" x="0px" y="0px"
	 viewBox="0 0 500 500" style="enable-background:new 0 0 500 500;" xml:space="preserve">
<style type="text/css">
	.st0{fill:#D1E3FF;}
	.st1{fill:#E3EEFF;}
	.st2{fill:#F3F8FF;}
	.st3{fill:#F5FCFF;}
	.st4{fill:#FFFFFF;}
	.st5{display:none;}
	.st6{display:inline;opacity:0.4;fill:#D4E8FF;}
	.st7{fill:#F0F6FF;}
	.st8{fill:#FFC3BD;}
	.st9{fill:#0053CC;}
	.st10{fill:#004DAA;}
	.st11{fill:#14365B;}
	.st12{fill:#F29994;}
	.st13{fill:#0F264C;}
	.st14{fill:#19437F;}
	.st15{fill:#4EA4F9;}
	.st16{fill:#133A68;}
	.st17{fill:#ED847E;}
	.st18{fill:#9FC6FF;}
	.st19{fill:#DCE9FF;}
	.st20{fill:#77B3FC;}
	.st21{fill:#B6D7FF;}
</style>
<g id="Background_2">
	<g>
		<g>
			<g>
				<g>
					<rect y="382.4" class="st0" width="500" height="0.25"/>
					<rect x="378.65" y="390" class="st0" width="26.57" height="0.25"/>
					<rect x="422.68" y="395" class="st0" width="22.9" height="0.25"/>
					<rect x="230.46" y="394.26" class="st0" width="16.1" height="0.25"/>
					<rect x="164.61" y="394.26" class="st0" width="60.09" height="0.25"/>
					<rect x="101.44" y="392.68" class="st0" width="38.23" height="0.25"/>
					<rect x="275.22" y="388.56" class="st0" width="86.63" height="0.25"/>
					<rect x="64.93" y="392.56" class="st0" width="25.18" height="0.25"/>
					<path class="st0" d="M237.01,337.8H43.92c-3.15,0-5.71-2.56-5.71-5.71V60.66c0-3.15,2.56-5.71,5.71-5.71h193.1
						c3.15,0,5.71,2.56,5.71,5.71v271.43C242.72,335.24,240.16,337.8,237.01,337.8z M43.92,55.2c-3.01,0-5.46,2.45-5.46,5.46v271.43
						c0,3.01,2.45,5.46,5.46,5.46h193.1c3.01,0,5.46-2.45,5.46-5.46V60.66c0-3.01-2.45-5.46-5.46-5.46H43.92z"/>
					<path class="st0" d="M453.31,337.8h-193.1c-3.15,0-5.71-2.56-5.71-5.71V60.66c0-3.15,2.56-5.71,5.71-5.71h193.1
						c3.15,0,5.71,2.56,5.71,5.71v271.43C459.02,335.24,456.46,337.8,453.31,337.8z M260.21,55.2c-3.01,0-5.46,2.45-5.46,5.46
						v271.43c0,3.01,2.45,5.46,5.46,5.46h193.1c3.01,0,5.46-2.45,5.46-5.46V60.66c0-3.01-2.45-5.46-5.46-5.46H260.21z"/>
				</g>
			</g>
		</g>
		<g>
			<g>
				
					<rect x="313.9" y="256.59" transform="matrix(-1 -1.224647e-16 1.224647e-16 -1 647.0963 638.984)" class="st1" width="19.3" height="125.81"/>
			</g>
			<g>
				
					<rect x="309.27" y="288.53" transform="matrix(-0.9014 0.4329 -0.4329 -0.9014 728.9504 470.3483)" class="st1" width="3.32" height="59.27"/>
			</g>
			<path class="st1" d="M315.92,298.22c0,0,3.54,17.41,22.38,12.28c8.24-2.24,10.03-8.44,9.63-14.35
				c7.61,5.43,19.07,9.84,17.96-13.95c0,0,24.55,18.71,32.79-8.19c8.23-26.89-13.81-29.43-13.81-29.43s31-25.61,20.42-46.6
				c-11.4-22.61-31.25-10.92-31.25-10.92s4.11-29.98-18.06-28.69c-2.85,0.17-5.46,1.4-7.41,3.35c-7.59-4.03-17.17,8.28-17.17,8.28
				s-1.91-15.08-16.98-9.64c-6.59,2.38-8.31,7.9-8.29,13.07c-5.71-4.37-14.5-7.67-14.82,13.13c0,0-18.36-15.16-26.18,8.82
				c-7.82,23.99,9.38,25.1,9.38,25.1s-25.65,24-18.39,41.87c7.82,19.25,24.02,8,24.02,8s-3.96,22.19,8.8,24.21
				c-0.8,4.5,1.07,9.21,5.13,11.6C304.17,312.12,315.92,298.22,315.92,298.22z"/>
			<g>
				<polygon class="st2" points="430.95,259.91 430.95,382.4 73.2,382.4 73.2,259.47 227.27,238.61 				"/>
				<polygon class="st1" points="227.27,238.61 73.2,259.47 73.2,382.4 227.27,382.4 				"/>
				
					<rect x="243.46" y="288.17" transform="matrix(-1 -1.224647e-16 1.224647e-16 -1 560.3886 670.5698)" class="st0" width="73.48" height="94.23"/>
				
					<rect x="234.67" y="303.6" transform="matrix(-1.836970e-16 1 -1 -1.836970e-16 617.0668 56.6783)" class="st1" width="91.05" height="66.54"/>
				
					<rect x="234.67" y="336.59" transform="matrix(-1.836970e-16 1 -1 -1.836970e-16 617.0668 56.6783)" class="st0" width="91.05" height="0.56"/>
				<polygon class="st0" points="444.81,264.37 227.31,241.63 59.43,264.36 58.62,258.42 227.22,235.59 227.58,235.63 
					445.44,258.41 				"/>
			</g>
			<path class="st2" d="M429.3,121.51c5.8-12.53,1.2-21.46-12.98-21.46c-8.89,0-19.92,3.51-30.65,9.23
				c-1.21-3.26-4.63-5.21-10.12-5.21c-9.67,0-23,6.04-33.46,14.55c-2.53-1.9-6.19-3.06-10.9-3.25c-9.26-0.38-20.47,3.08-30.21,8.73
				c-0.84-0.94-2.29-1.54-4.29-1.62c-5.33-0.22-12.55,3.28-16.14,7.81c-0.22,0.29-0.42,0.56-0.62,0.83h11.08h8.81h30.62h15.07h11.72
				h18.05h3.28h44.77h13.2C441.45,126.68,435.99,121.73,429.3,121.51z"/>
			<path class="st2" d="M208.76,88.02c-0.39-0.04-0.78-0.06-1.18-0.06c0.37-4.1-1.76-6.72-6.29-6.72c-3.27,0-7.29,1.37-11.38,3.68
				c1.17-7.96-2.58-13.13-11.07-13.13c-6.85,0-15.53,3.36-24.09,8.85c-0.75-3.12-3.27-4.99-7.52-4.99
				c-7.45,0-18.04,5.78-26.53,13.94c0,0,0,0.01-0.01,0c-1.83-1.82-4.59-2.94-8.21-3.12c-7.09-0.37-15.9,2.95-23.71,8.37
				c-0.59-0.91-1.68-1.48-3.22-1.56c-3.88-0.2-9.23,2.79-12.33,6.78h9.05h6.14h23.6h11.05h9.84h13.98h26.41h10.29h3.66h14.65H215
				C218.33,94,215.68,88.7,208.76,88.02z"/>
			<g>
				<path class="st2" d="M65.01,382.4H49.79c0,0-9.37-8.33-12.42-19.5c-1.4-5.14,5.51-8.7,9.69-5.02
					C56.86,366.49,65.01,382.4,65.01,382.4z"/>
				<path class="st2" d="M71.42,382.4H56.2c0,0-8.71-17.88-5.34-30.9c1.17-4.52,6.83-5.91,9.96-2.46
					C72.34,361.71,71.42,382.4,71.42,382.4z"/>
				<path class="st2" d="M71.44,382.4h9.82c0,0,6.17-10.87,11.96-24.22c5.4-12.45-3.8-17.66-9.58-5.42
					C76.29,368.33,71.44,382.4,71.44,382.4z"/>
				<path class="st2" d="M74.13,382.4h15.22c0,0,15.33-7.25,14.47-20.98c-0.22-3.59-4.33-5.93-7.97-4.53
					C79.52,363.15,74.13,382.4,74.13,382.4z"/>
				<path class="st2" d="M65.58,382.4h15.22c0,0,4.6-25.39-0.85-41.39c-1.63-4.78-7.42-5.61-10.09-1.46
					C59.94,354.99,65.58,382.4,65.58,382.4z"/>
			</g>
			<rect x="110.2" y="272.72" class="st0" width="80.07" height="82.11"/>
			
				<rect x="113.4" y="277.5" transform="matrix(-1.836970e-16 1 -1 -1.836970e-16 464.0103 163.5456)" class="st3" width="73.66" height="72.55"/>
			<rect x="111.75" y="310.94" class="st0" width="76.96" height="5.67"/>
			
				<rect x="110.67" y="310.94" transform="matrix(-1.836970e-16 1 -1 -1.836970e-16 464.0103 163.5456)" class="st0" width="79.13" height="5.67"/>
			<polyline class="st0" points="430.95,354.83 340.16,354.83 340.16,274.21 430.95,274.21 			"/>
			
				<rect x="351.24" y="270.97" transform="matrix(-1.836970e-16 1 -1 -1.836970e-16 701.9202 -72.8741)" class="st3" width="72.32" height="87.11"/>
			
				<ellipse transform="matrix(0.2309 -0.973 0.973 0.2309 -43.9975 477.7672)" class="st4" cx="280.19" cy="266.71" rx="11.12" ry="11.12"/>
			<rect x="172.66" y="379.56" class="st0" width="158.83" height="2.85"/>
		</g>
	</g>
</g>
<g id="Background_1" class="st5">
	<path class="st6" d="M81.22,219.64c-19.37-40.16-23.4-87.68,17.27-109.02c34.8-18.26,65.69,16.63,97.68,24.77
		C262.56,152.3,395.57,68.05,413.67,175C440.06,330.98,148.68,359.48,81.22,219.64z"/>
</g>
<g id="Objects">
	<g>
		<ellipse class="st7" cx="250" cy="416.24" rx="193.89" ry="11.32"/>
		<g>
			<g>
				<path class="st8" d="M158.6,173.02c-0.16,2.86-0.5,5.47-0.87,8.18c-0.37,2.69-0.88,5.36-1.45,8.02
					c-1.12,5.32-2.68,10.6-4.82,15.76l-0.86,1.92l-0.22,0.48l-0.11,0.24c-0.04,0.08-0.06,0.14-0.15,0.31
					c-0.27,0.55-0.63,1.13-1.13,1.69c-0.5,0.56-1.13,1.1-1.87,1.48c-0.72,0.38-1.52,0.63-2.23,0.7c-1.45,0.17-2.58-0.09-3.53-0.37
					c-1.86-0.61-3.19-1.45-4.45-2.3c-1.23-0.87-2.33-1.79-3.38-2.72c-4.13-3.82-7.55-7.9-10.7-12.34l3.32-2.8
					c1.86,1.74,3.79,3.5,5.72,5.17c1.92,1.69,3.91,3.28,5.91,4.71c0.99,0.71,2,1.38,2.98,1.92c0.96,0.54,1.96,0.99,2.63,1.11
					c0.31,0.06,0.52,0.02,0.37,0c-0.13-0.04-0.61,0.19-0.73,0.33c-0.07,0.07-0.08,0.08-0.07,0.03l0.3-0.79l0.66-1.72
					c1.63-4.66,2.87-9.56,3.82-14.54c0.5-2.49,0.85-5.01,1.22-7.52c0.36-2.49,0.65-5.1,0.87-7.49L158.6,173.02z"/>
				<path class="st9" d="M152.63,162.56c-3.54,0.9-6.01,15.45-6.01,15.45l9.74,6.63c0,0,9.34-14.68,6.62-18.57
					C160.15,162.03,157.79,161.25,152.63,162.56z"/>
				<polygon class="st10" points="152.94,165.81 150.23,180.48 155.7,184.19 				"/>
				<path class="st8" d="M126.26,190.71l-4.64-7.32l-2.63,8.32c0,0,3.8,3.99,7.24,3.04L126.26,190.71z"/>
				<polygon class="st8" points="114.83,180.97 113,188.05 118.99,191.71 121.62,183.39 				"/>
				<polygon class="st8" points="171.76,407.48 163.18,407.48 162.6,387.61 171.18,387.61 				"/>
				<polygon class="st8" points="247.46,367.63 240.92,373.18 225.96,359.82 232.5,354.27 				"/>
				<path class="st11" d="M239.13,372.52l6.34-7.26c0.23-0.26,0.6-0.32,0.89-0.13l6.47,4.19c0.67,0.43,0.79,1.44,0.24,2.04
					c-2.25,2.49-3.47,3.58-6.26,6.77c-1.72,1.96-4.02,5.01-6.39,7.72c-2.32,2.65-5.18,0.51-4.43-0.83
					c3.33-6.01,2.53-8.13,2.59-11.08C238.6,373.41,238.79,372.9,239.13,372.52z"/>
				<path class="st11" d="M162.88,406.48h9.64c0.35,0,0.64,0.24,0.68,0.59l1.1,7.63c0.11,0.79-0.57,1.54-1.38,1.53
					c-3.36-0.06-4.98-0.26-9.22-0.26c-2.61,0-8,0.27-11.6,0.27c-3.52,0-3.79-3.56-2.29-3.88c6.72-1.45,9.37-3.44,11.63-5.34
					C161.86,406.67,162.37,406.48,162.88,406.48z"/>
				<g>
					<polygon class="st12" points="162.61,387.62 162.9,397.86 171.48,397.86 171.19,387.62 					"/>
					<polygon class="st12" points="232.5,354.27 225.96,359.83 233.68,366.71 240.22,361.15 					"/>
				</g>
				<path class="st13" d="M158.78,123.83c5.79-8.61,19.67-11.47,28.31-3.75c11,9.83,4.33,29.1,21.24,23.97
					c16.92-5.13,32.75-3.88,32.83,4.87c0.08,8.75,10.42-2.35,22.58,6.62c24.62,18.17,5.79,64.9-15.86,47.05
					c-14.19-11.7-19.17-16.72-26.25-7.81c-7.08,8.92-32.29,4.71-34.55-6.54c-2.26-11.25-18.34-5.75-27.09-15.58
					C151.25,162.83,146.43,142.18,158.78,123.83z"/>
				<path class="st9" d="M152.63,162.56c0,0-4.09,1.44,4.1,51.78c13.83,0,28.12,0,34.84,0c-0.58-14.18-0.6-22.93,6.18-52.03
					c0,0-7.3-1.59-14.8-1.95c-5.86-0.28-10.67-0.47-15.82,0C160.33,160.99,152.63,162.56,152.63,162.56z"/>
				<path class="st8" d="M181.38,142.55c-1,5.09-1.99,14.42,1.57,17.82c0,0-1.39,5.16-10.85,5.16c-10.4,0-4.97-5.16-4.97-5.16
					c5.68-1.36,5.53-5.57,4.54-9.52L181.38,142.55z"/>
				<path class="st12" d="M177.42,145.93l-5.75,4.9c0.24,0.94,0.42,1.89,0.49,2.81c2.17-0.31,5.15-2.69,5.38-4.96
					C177.65,147.55,177.61,146.46,177.42,145.93z"/>
				<path class="st8" d="M186.75,133.21c-2,8.28-2.66,11.82-7.65,15.37c-7.5,5.33-17.23,1.07-17.75-7.63
					c-0.47-7.84,2.88-20.06,11.66-21.94C181.66,117.16,188.75,124.93,186.75,133.21z"/>
				<path class="st14" d="M156.73,214.34c0,0-6.77,66.09-6.2,92.25c0.58,27.21,10.56,89.28,10.56,89.28h11.6
					c0,0-1.84-60.48-0.81-87.2c1.12-29.14,10.37-94.33,10.37-94.33H156.73z"/>
				<polygon class="st15" points="173.68,396.29 160.07,396.29 159.07,391.95 174.32,391.42 				"/>
				<path class="st16" d="M171.75,230.79c-8.56,17.22-1.72,48.62,1.31,60.31c1.55-17.55,4.17-39,6.21-54.75
					C177.97,227.43,175.7,222.85,171.75,230.79z"/>
				<path class="st14" d="M165.93,214.34c0,0,7.89,68.71,13.85,90.76c7.08,26.19,51.03,61.43,51.03,61.43l8.92-7.57
					c0,0-31.86-38.28-37.27-52.08c-11.55-29.45-1.66-73.33-10.89-92.54H165.93z"/>
				<polygon class="st15" points="241.16,358.56 230.09,367.96 225.96,365.48 238.48,353.84 				"/>
				
					<ellipse transform="matrix(0.1744 -0.9847 0.9847 0.1744 11.572 280.1217)" class="st13" cx="172.84" cy="133.16" rx="1.25" ry="0.82"/>
				<path class="st13" d="M165.94,131.94c-0.12,0.68-0.58,1.17-1.03,1.09s-0.71-0.7-0.59-1.38s0.58-1.17,1.03-1.09
					C165.8,130.64,166.06,131.26,165.94,131.94z"/>
				<path class="st13" d="M165.54,130.63l-1.55-0.76C163.99,129.87,164.6,131.3,165.54,130.63z"/>
				<path class="st17" d="M167.77,133.47c0,0-1.68,2.73-3.2,3.92c0.75,1,2.35,0.89,2.35,0.89L167.77,133.47z"/>
				<path class="st13" d="M170,141.49c-0.36,0-0.75-0.03-1.16-0.1c-0.11-0.02-0.18-0.12-0.16-0.24c0.02-0.11,0.12-0.18,0.24-0.16
					c2.98,0.53,4.76-1.31,4.77-1.33c0.08-0.08,0.2-0.09,0.29-0.01c0.08,0.08,0.09,0.21,0.01,0.29
					C173.92,140,172.49,141.49,170,141.49z"/>
				<path class="st13" d="M173.35,118.31c-3.83,2.2,5.61,23,12.53,20.08c6.92-2.92,4.67-14.53,1.25-17.45
					C183.72,118.02,178.66,115.27,173.35,118.31z"/>
				<path class="st13" d="M171.2,117.33c0,0-4.61,0.67-7.69,6.42s14.62-5.62,12.12-6.42C173.13,116.54,171.2,117.33,171.2,117.33z"
					/>
				<path class="st8" d="M187.1,139.45c-0.67,1.63-2.02,2.81-3.37,3.35c-2.02,0.81-3.28-0.94-2.91-2.97
					c0.33-1.83,1.77-4.46,3.9-4.41C186.82,135.47,187.87,137.58,187.1,139.45z"/>
				<path class="st13" d="M175.75,128.82c-0.11,0-0.21-0.04-0.29-0.13c-1.25-1.32-2.72-1.06-2.74-1.06
					c-0.22,0.04-0.43-0.11-0.47-0.33c-0.04-0.22,0.11-0.43,0.33-0.47c0.08-0.01,1.93-0.33,3.47,1.3c0.15,0.16,0.15,0.42-0.02,0.57
					C175.95,128.79,175.85,128.82,175.75,128.82z"/>
				<path class="st13" d="M163.14,127.78c-0.1,0-0.2-0.04-0.28-0.11c-0.16-0.16-0.17-0.41-0.01-0.57c1.55-1.63,3.4-1.3,3.48-1.29
					c0.22,0.04,0.37,0.25,0.32,0.47c-0.04,0.22-0.25,0.36-0.47,0.33c-0.07-0.01-1.51-0.24-2.74,1.05
					C163.36,127.73,163.25,127.78,163.14,127.78z"/>
				<path class="st8" d="M201.51,171.49c1.92,4.66,3.49,9.25,4.87,14.03c1.37,4.76,2.53,9.61,3.17,14.71
					c0.13,1.29,0.28,2.56,0.32,3.9l0.05,0.99c0.01,0.16,0.07,1.05-0.16,1.97c-0.12,0.48-0.32,1.03-0.65,1.56
					c-0.33,0.54-0.8,1.06-1.31,1.42c-1.04,0.75-2.01,0.94-2.71,1.02c-0.73,0.07-1.29,0.02-1.78-0.05c-0.5-0.07-0.92-0.17-1.32-0.27
					c-0.79-0.22-1.48-0.47-2.13-0.74c-1.3-0.53-2.46-1.15-3.58-1.78c-4.43-2.57-8.33-5.46-12.11-8.69l2.46-3.58
					c4.21,2.13,8.5,4.35,12.69,6.06c1.04,0.42,2.08,0.8,3.04,1.09c0.48,0.14,0.94,0.25,1.32,0.31c0.18,0.02,0.35,0.04,0.45,0.03
					c0.11,0,0.16-0.03,0.02-0.03c-0.11,0.01-0.49,0.03-1.04,0.41c-0.57,0.38-0.96,1.14-1.03,1.48c-0.1,0.33-0.05,0.61-0.1,0.18
					l-0.09-0.81c-0.09-1.07-0.29-2.18-0.46-3.28c-0.4-2.21-0.88-4.44-1.49-6.68c-0.57-2.23-1.23-4.47-1.92-6.7
					c-1.42-4.43-2.99-8.95-4.64-13.22L201.51,171.49z"/>
				<path class="st9" d="M197.75,162.31c3.49,1.06,7.68,13.08,7.68,13.08l-13.54,9.68c0,0-4.94-10.03-3.47-14.55
					C189.94,165.83,193.76,161.1,197.75,162.31z"/>
				<path class="st18" d="M236.79,376.66c-0.34,0-0.64-0.16-0.91-0.46c-0.23-0.26-0.21-0.51-0.16-0.68c0.32-1.05,3.3-1.9,3.64-2
					c0.08-0.03,0.16,0,0.21,0.07c0.05,0.06,0.06,0.15,0.02,0.22c-0.53,1.01-1.59,2.72-2.67,2.85
					C236.87,376.65,236.83,376.66,236.79,376.66z M238.99,374.05c-1.18,0.38-2.72,1.03-2.88,1.58c-0.02,0.07-0.03,0.17,0.08,0.3
					c0.21,0.24,0.43,0.35,0.68,0.32C237.45,376.18,238.23,375.37,238.99,374.05z"/>
				<path class="st18" d="M238.05,374.08c-0.99,0-2.1-0.2-2.48-0.69c-0.12-0.15-0.27-0.46,0.02-0.89c0.18-0.27,0.44-0.43,0.77-0.47
					c1.23-0.17,3.1,1.46,3.18,1.53c0.05,0.05,0.08,0.12,0.07,0.19c-0.01,0.07-0.06,0.13-0.13,0.15
					C239.15,374.01,238.62,374.08,238.05,374.08z M236.54,372.42c-0.04,0-0.09,0-0.13,0.01c-0.21,0.03-0.37,0.12-0.49,0.29
					c-0.15,0.22-0.1,0.33-0.04,0.41c0.37,0.48,2.05,0.66,3.08,0.47C238.35,373.13,237.28,372.42,236.54,372.42z"/>
				<path class="st18" d="M159.66,407.98c-0.85,0-1.64-0.13-2.08-0.53c-0.28-0.25-0.4-0.58-0.37-0.99c0.02-0.24,0.14-0.43,0.34-0.54
					c1.05-0.58,4.47,1.17,4.86,1.37c0.08,0.04,0.12,0.12,0.11,0.21c-0.01,0.09-0.08,0.15-0.16,0.17
					C161.63,407.82,160.61,407.98,159.66,407.98z M158.13,406.21c-0.16,0-0.29,0.02-0.38,0.07c-0.08,0.05-0.12,0.11-0.13,0.22
					c-0.02,0.27,0.05,0.49,0.23,0.65c0.52,0.47,1.93,0.55,3.83,0.23C160.51,406.82,158.94,406.21,158.13,406.21z"/>
				<path class="st18" d="M162.32,407.68c-0.03,0-0.06-0.01-0.08-0.02c-1.02-0.46-3.05-2.31-2.89-3.29c0.04-0.23,0.2-0.52,0.76-0.57
					c0.42-0.04,0.8,0.08,1.12,0.35c1.08,0.9,1.28,3.21,1.28,3.31c0.01,0.07-0.03,0.14-0.09,0.18
					C162.4,407.67,162.36,407.68,162.32,407.68z M160.28,404.2c-0.04,0-0.08,0-0.12,0.01c-0.37,0.04-0.4,0.19-0.4,0.23
					c-0.1,0.58,1.28,2.04,2.32,2.67c-0.1-0.67-0.39-2.06-1.09-2.65C160.77,404.29,160.54,404.2,160.28,404.2z"/>
				<path class="st18" d="M192.09,212.3l0.89,3.12c0.12,0.24-0.16,0.49-0.57,0.49h-35.86c-0.31,0-0.57-0.15-0.59-0.35l-0.31-3.12
					c-0.02-0.22,0.25-0.4,0.59-0.4h35.28C191.78,212.04,192.01,212.14,192.09,212.3z"/>
				<path class="st14" d="M187.35,216.24h0.95c0.19,0,0.33-0.1,0.32-0.22l-0.44-4.05c-0.01-0.12-0.18-0.22-0.37-0.22h-0.94
					c-0.19,0-0.33,0.1-0.32,0.22l0.44,4.05C187,216.15,187.16,216.24,187.35,216.24z"/>
				<path class="st14" d="M159.21,216.24h0.95c0.19,0,0.33-0.1,0.32-0.22l-0.44-4.05c-0.01-0.12-0.18-0.22-0.37-0.22h-0.95
					c-0.19,0-0.33,0.1-0.32,0.22l0.44,4.05C158.86,216.15,159.02,216.24,159.21,216.24z"/>
				<path class="st14" d="M173.28,216.24h0.94c0.19,0,0.33-0.1,0.32-0.22l-0.44-4.05c-0.01-0.12-0.18-0.22-0.37-0.22h-0.95
					c-0.19,0-0.33,0.1-0.32,0.22l0.44,4.05C172.93,216.15,173.09,216.24,173.28,216.24z"/>
				<path class="st8" d="M187.77,196.87l-2.88-8.81l-4.59,7.42c0,0,2.7,4.8,6.27,4.72L187.77,196.87z"/>
				<g>
					<path class="st19" d="M181.83,177.96l-2.26,29.24c-0.12,1.58-1.52,2.78-3.1,2.66l-55.66-4.3c-1.58-0.12-2.78-1.52-2.66-3.1
						l2.26-29.24c0.06-0.83,0.48-1.55,1.08-2.04c0.55-0.44,1.26-0.68,2.02-0.62l55.66,4.3c0.76,0.06,1.42,0.41,1.9,0.92
						C181.59,176.35,181.89,177.13,181.83,177.96z"/>
					<path class="st18" d="M181.07,175.78l-23.84,16.31c-4.55,3.11-10.66,2.64-14.68-1.13l-21.06-19.77
						c0.55-0.44,1.26-0.68,2.02-0.62l55.66,4.3C179.92,174.92,180.59,175.27,181.07,175.78z"/>
				</g>
				<polygon class="st8" points="178.9,184.05 175.39,190.46 181.07,196.65 184.89,188.06 				"/>
				<path class="st13" d="M173.25,132l-1.55-0.76C171.69,131.24,172.31,132.66,173.25,132z"/>
			</g>
			<g>
				<g>
					<g>
						<rect x="321.03" y="250" class="st18" width="12.26" height="166.24"/>
						<polygon class="st20" points="321.03,250 333.29,250 333.29,262.26 321.03,257.75 						"/>
					</g>
					<g>
						<path class="st9" d="M307.8,210.12c0-16.2-13.13-29.33-29.33-29.33c-16.2,0-29.33,13.13-29.33,29.33V250h58.67V210.12z"/>
						<path class="st20" d="M243.57,267.11c-3.92,16.2,6.04,29.33,22.24,29.33c16.2,0,32.51-13.13,36.43-29.33l4.08-16.87
							c0.24-0.97-0.5-1.91-1.5-1.91l-55.49,0c-0.71,0-1.33,0.49-1.5,1.18L243.57,267.11z"/>
						<path class="st18" d="M241.21,267.11c-3.92,16.2,6.04,29.33,22.24,29.33c16.2,0,32.51-13.13,36.43-29.33l4.08-16.87
							c0.24-0.97-0.5-1.91-1.5-1.91l-55.49,0c-0.71,0-1.33,0.49-1.5,1.18L241.21,267.11z"/>
						<path class="st18" d="M376.84,210.11V250h-69.05v-39.89c0-6.79-2.3-13.03-6.18-18c-5.36-6.9-13.74-11.33-23.15-11.33h69.05
							c9.41,0,17.79,4.43,23.15,11.33C374.54,197.08,376.84,203.32,376.84,210.11z"/>
						<path class="st21" d="M376.84,210.11v10.67h-69.05v-10.67c0-6.79-2.3-13.03-6.18-18h69.05
							C374.54,197.08,376.84,203.32,376.84,210.11z"/>
						<path class="st9" d="M317.41,225.92v-58.98c0-2.24,2.01-3.94,4.21-3.58l14.14,2.34c1.05,0.17,1.82,1.08,1.82,2.14v3.66
							c0,1.2-0.97,2.17-2.17,2.17h-13.5v52.25c0,1.24-1.01,2.25-2.25,2.25l0,0C318.41,228.17,317.41,227.16,317.41,225.92z"/>
					</g>
				</g>
				<g>
					<g>
						<path class="st19" d="M278.46,188.57v29.32c0,1.59-1.3,2.89-2.89,2.89h-55.82c-1.59,0-2.89-1.3-2.89-2.89v-29.32
							c0-0.83,0.36-1.58,0.92-2.11c0.52-0.48,1.21-0.77,1.97-0.77h55.82c0.76,0,1.45,0.3,1.97,0.77
							C278.11,186.99,278.46,187.74,278.46,188.57z"/>
						<path class="st18" d="M277.54,186.46l-22.51,18.09c-4.3,3.46-10.43,3.46-14.73,0l-22.51-18.09c0.52-0.48,1.21-0.77,1.97-0.77
							h55.82C276.33,185.68,277.02,185.98,277.54,186.46z"/>
					</g>
					<g>
						<path class="st19" d="M235.68,232.6v29.32c0,1.59-1.3,2.89-2.89,2.89h-55.82c-1.59,0-2.89-1.3-2.89-2.89V232.6
							c0-0.83,0.36-1.58,0.92-2.11c0.52-0.48,1.21-0.77,1.97-0.77h55.82c0.76,0,1.45,0.3,1.97,0.77
							C235.33,231.02,235.68,231.77,235.68,232.6z"/>
						<path class="st18" d="M234.76,230.49l-22.51,18.09c-4.3,3.46-10.43,3.46-14.73,0l-22.51-18.09c0.52-0.48,1.21-0.77,1.97-0.77
							h55.82C233.56,229.72,234.25,230.01,234.76,230.49z"/>
					</g>
					<g>
						<g>
							<path class="st19" d="M307.8,210.62v35.1h-20.86c-1.59,0-2.89-1.3-2.89-2.89v-29.32c0-0.83,0.36-1.58,0.93-2.11
								c0.51-0.48,1.2-0.78,1.96-0.78H307.8z"/>
							<path class="st18" d="M307.8,210.62v19.1c-0.11-0.07-0.21-0.15-0.31-0.23l-22.51-18.09c0.51-0.48,1.2-0.78,1.96-0.78H307.8z"
								/>
						</g>
						<rect x="303.22" y="210.62" class="st21" width="4.57" height="35.1"/>
					</g>
				</g>
			</g>
		</g>
	</g>
</g>
<g id="Designed_by_Freepik">
</g>
</svg>
